<svg width="34" height="34" viewBox="0 0 34 34" fill="none" xmlns="http://www.w3.org/2000/svg">
<rect x="1" y="1" width="32" height="32" rx="6" stroke="white" stroke-width="2"/>
<path d="M17.314 25.299C15.2287 25.299 13.565 24.5937 12.323 23.183C11.081 21.7723 10.46 19.687 10.46 16.927C10.46 14.167 10.9967 12.097 12.07 10.717C13.1587 9.32167 14.9143 8.624 17.337 8.624C18.3643 8.624 19.3457 8.762 20.281 9.038C21.2317 9.314 21.8757 9.55167 22.213 9.751C22.5503 9.935 22.8187 10.1037 23.018 10.257C23.018 11.2383 22.8953 12.327 22.65 13.523C22.2513 13.707 21.8527 13.799 21.454 13.799C21.0707 13.799 20.741 13.7837 20.465 13.753L19.982 11.361C19.3073 11.177 18.648 11.085 18.004 11.085C17.0993 11.085 15.9723 11.269 14.623 11.637C13.9483 12.9863 13.611 14.627 13.611 16.559C13.611 20.791 14.853 22.907 17.337 22.907C18.579 22.907 19.568 22.7 20.304 22.286C20.3347 21.4887 20.3653 20.262 20.396 18.606L18.464 18.008L18.648 16.605H24.214C24.398 16.9423 24.536 17.548 24.628 18.422C24.1067 18.5293 23.547 18.606 22.949 18.652C23.041 20.63 23.087 22.332 23.087 23.758C22.6423 24.0493 21.8373 24.379 20.672 24.747C19.5067 25.115 18.3873 25.299 17.314 25.299Z" fill="white"/>
</svg>
