<svg width="50" height="50" viewBox="0 0 50 50" fill="none" xmlns="http://www.w3.org/2000/svg">
<rect x="2" y="2" width="46" height="46" rx="5" stroke="white" stroke-width="4"/>
<path d="M25.473 38.4224C22.1184 38.4224 19.442 37.2877 17.444 35.0184C15.446 32.7491 14.447 29.3944 14.447 24.9544C14.447 20.5144 15.3104 17.1844 17.037 14.9644C18.7884 12.7197 21.6127 11.5974 25.51 11.5974C27.1627 11.5974 28.7414 11.8194 30.246 12.2634C31.7754 12.7074 32.8114 13.0897 33.354 13.4104C33.8967 13.7064 34.3284 13.9777 34.649 14.2244C34.649 15.8031 34.4517 17.5544 34.057 19.4784C33.4157 19.7744 32.7744 19.9224 32.133 19.9224C31.5164 19.9224 30.986 19.8977 30.542 19.8484L29.765 16.0004C28.6797 15.7044 27.619 15.5564 26.583 15.5564C25.1277 15.5564 23.3147 15.8524 21.144 16.4444C20.0587 18.6151 19.516 21.2544 19.516 24.3624C19.516 31.1704 21.514 34.5744 25.51 34.5744C27.508 34.5744 29.099 34.2414 30.283 33.5754C30.3324 32.2927 30.3817 30.3194 30.431 27.6554L27.323 26.6934L27.619 24.4364H36.573C36.869 24.9791 37.091 25.9534 37.239 27.3594C36.4004 27.5321 35.5 27.6554 34.538 27.7294C34.686 30.9114 34.76 33.6494 34.76 35.9434C34.0447 36.4121 32.7497 36.9424 30.875 37.5344C29.0004 38.1264 27.1997 38.4224 25.473 38.4224Z" fill="white"/>
</svg>
